<mxfile host="app.diagrams.net" modified="2024-06-22T02:51:45.981Z" agent="Mozilla/5.0 (Windows NT 10.0; Win64; x64) AppleWebKit/537.36 (KHTML, like Gecko) Chrome/126.0.0.0 Safari/537.36" etag="b1oLyFuMqzUKwI9i2mx6" version="24.4.13" type="device">
  <diagram name="PÃ¡gina-1" id="Xfe99QoiPZLZzVF4dz2u">
    <mxGraphModel dx="1434" dy="772" grid="1" gridSize="10" guides="1" tooltips="1" connect="1" arrows="1" fold="1" page="1" pageScale="1" pageWidth="827" pageHeight="1169" math="0" shadow="0">
      <root>
        <mxCell id="0" />
        <mxCell id="1" parent="0" />
        <mxCell id="W-c9P5dm7CqbiwBc_W1A-1" value="" style="rounded=0;whiteSpace=wrap;html=1;movable=1;resizable=1;rotatable=1;deletable=1;editable=1;locked=0;connectable=1;" vertex="1" parent="1">
          <mxGeometry x="20" y="10" width="780" height="460" as="geometry" />
        </mxCell>
        <mxCell id="W-c9P5dm7CqbiwBc_W1A-2" value="&lt;font style=&quot;font-size: 21px;&quot;&gt;HEADER&lt;/font&gt;" style="rounded=0;whiteSpace=wrap;html=1;strokeWidth=4;strokeColor=#0000FF;" vertex="1" parent="1">
          <mxGeometry x="30" y="20" width="760" height="80" as="geometry" />
        </mxCell>
        <mxCell id="W-c9P5dm7CqbiwBc_W1A-4" value="" style="rounded=0;whiteSpace=wrap;html=1;strokeColor=#CC6600;strokeWidth=4;movable=1;resizable=1;rotatable=1;deletable=1;editable=1;locked=0;connectable=1;" vertex="1" parent="1">
          <mxGeometry x="30" y="140" width="760" height="230" as="geometry" />
        </mxCell>
        <mxCell id="W-c9P5dm7CqbiwBc_W1A-5" value="&lt;font style=&quot;font-size: 17px;&quot;&gt;SECTION&lt;/font&gt;" style="text;html=1;align=center;verticalAlign=middle;whiteSpace=wrap;rounded=0;" vertex="1" parent="1">
          <mxGeometry x="40" y="110" width="70" height="30" as="geometry" />
        </mxCell>
        <mxCell id="W-c9P5dm7CqbiwBc_W1A-6" value="&lt;font style=&quot;font-size: 18px;&quot;&gt;ARTICLE&lt;/font&gt;" style="rounded=0;whiteSpace=wrap;html=1;strokeWidth=4;strokeColor=#009900;" vertex="1" parent="1">
          <mxGeometry x="40" y="150" width="490" height="200" as="geometry" />
        </mxCell>
        <mxCell id="W-c9P5dm7CqbiwBc_W1A-8" value="&lt;font style=&quot;font-size: 20px;&quot;&gt;ASIDE&lt;/font&gt;" style="rounded=0;whiteSpace=wrap;html=1;strokeWidth=4;strokeColor=#FF3333;" vertex="1" parent="1">
          <mxGeometry x="540" y="150" width="230" height="200" as="geometry" />
        </mxCell>
        <mxCell id="W-c9P5dm7CqbiwBc_W1A-10" value="&lt;font style=&quot;font-size: 17px;&quot;&gt;FOOTER&lt;/font&gt;" style="rounded=0;whiteSpace=wrap;html=1;strokeColor=#4D4D4D;strokeWidth=4;" vertex="1" parent="1">
          <mxGeometry x="30" y="380" width="760" height="60" as="geometry" />
        </mxCell>
      </root>
    </mxGraphModel>
  </diagram>
</mxfile>
